<svg width="682" height="455" viewBox="0 0 682 455" fill="none" xmlns="http://www.w3.org/2000/svg">
<path 
    class='path' 
    pathLength='1' 
    id='path' 
    d="M11 260.852C22.0573 180.259 45.5795 131.276 81.5344 133.278C98.1587 135.466 114.514 130.958 122.679 160.532C129.164 184.017 136.954 202.284 122.679 236.497C111.429 263.462 95.3003 275.899 81.5344 311.302C70.6686 348.484 68.2266 370.083 70.0585 409.883C71.0194 430.758 80.8752 428.242 94.6896 428.439C103.926 428.439 115.268 417.131 116.242 404.084C118.145 378.569 119.908 357.353 127.438 331.888C138.667 301.919 156.267 274.48 165.224 268.681C177.971 260.428 179.644 265.825 187.616 268.681C203.01 274.195 210.847 277.41 231 279.409C268.663 283.144 297.056 277.669 328.964 272.16C347.158 269.019 375.012 249.045 359.753 236.497C344.494 223.949 332.323 250.414 331.483 260.852C330.644 271.29 332.587 281.497 324.206 404.084C322.527 428.439 330.644 434.818 349.677 437.427C366.751 435.687 371.482 428.516 376.827 409.883C384.721 343.774 387.251 308.107 388.023 247.225C388.784 179.025 386.55 143.39 376.827 85.4371C368.726 52.765 362.368 37.4267 343.799 21.9397C312.502 7.95085 292.603 6.97435 253.672 15.271C210.648 27.3293 186.275 34.1219 165.224 43.3954C133.565 62.3838 108.849 76.7388 103.926 95.0052C93.2087 134.775 87.6968 152.124 94.6896 179.958C111.276 245.981 108.14 258.044 108.684 291.876C103.366 339.137 102.034 353.756 103.926 382.628C105.279 408.161 106.856 420.665 116.242 428.439C123.475 435.66 128.557 437.427 139.753 435.108C150.949 432.788 152.908 423.22 152.908 409.883C152.908 396.545 139.753 346.095 152.908 304.634C163.896 276.807 171.716 264.699 187.616 247.225C198.252 235.536 204.13 220.26 198.252 215.911C198.252 215.911 186.131 208.663 195.173 223.74C204.215 238.817 307.692 223.74 309.092 223.74C323.98 222.488 327.285 212.432 327.845 211.272C329.633 205.869 323.087 199.225 319.448 202.284C313.279 207.47 322.527 224.899 322.527 224.899C346.419 287.281 386.997 354.794 389.982 382.338C392.967 409.883 392.971 427.279 395.86 433.658C398.749 440.037 401.114 444.088 421.611 444.966C433.646 445.481 442.043 440.327 446.802 421.19C448.761 395.675 446.041 384.736 442.043 361.172C425.927 288.884 414.497 265.522 411.814 201.414C413.423 185.429 424.969 180.538 445.402 177.349C454.587 177.123 459.492 177.405 466.674 180.538C495.116 191.732 498.947 213.44 516.216 238.817C533.486 264.193 564.359 270.13 564.359 270.13C582.48 276.259 591.878 278.738 610.262 282.598C511.162 307.58 440.024 198.519 505.02 182.278C505.02 182.278 514.537 182.858 514.537 190.396C514.537 197.935 499.422 199.384 499.422 199.384C455.945 200.061 377.028 173.632 410.695 85.4371C421.036 58.3469 485.987 65.721 485.987 91.8158C485.987 117.911 476.471 156.763 452.959 152.704C429.448 148.645 419.372 94.1354 419.372 94.1354C416.932 69.046 436.445 54.9931 448.481 50.0641C460.517 45.1351 492.582 44.5091 519.015 54.1233C536.649 60.5368 541.407 108.343 541.407 119.36C541.407 201.414 541.592 189.677 548.684 268.681C550.146 329.422 603.837 446.064 671 339.717" 
    stroke="black" 
    stroke-width="20" 
    stroke-linecap="round"/>
</svg>
